<?xml version="1.0" encoding="UTF-8"?>
<svg version="1.1" xmlns="http://www.w3.org/2000/svg" width="512" height="512">
<path d="M0 0 C168.96 0 337.92 0 512 0 C512 168.96 512 337.92 512 512 C343.04 512 174.08 512 0 512 C0 343.04 0 174.08 0 0 Z " fill="#92FE73" transform="translate(0,0)"/>
<path d="M0 0 C0.79889648 0.13921875 1.59779297 0.2784375 2.42089844 0.421875 C13.47166002 2.40358069 23.61661202 5.84162587 33.95800781 10.17236328 C36.65722737 11.26637982 39.39886311 12.22768109 42.15380859 13.17163086 C44.61942834 14.27793181 46.11664394 14.99924708 48 17 C48.58794923 19.98775754 48.92370109 22.67794878 49.1171875 25.6953125 C49.1889621 26.57567169 49.26073669 27.45603088 49.33468628 28.36306763 C49.48880026 30.25877529 49.63556467 32.15509185 49.77575684 34.05187988 C50.07443166 37.9785515 50.4364646 41.89838369 50.79718018 45.81976318 C51.16349022 49.8229794 51.51170183 53.82769034 51.85986328 57.83251953 C52.12902191 60.92115203 52.40235947 64.00939856 52.67578125 67.09765625 C52.84921059 69.08331132 53.022397 71.06898762 53.1953125 73.0546875 C53.27653351 73.96717255 53.35775452 74.87965759 53.44143677 75.8197937 C53.82074981 80.22944403 54.09370505 84.56856971 54 89 C47.84514112 88.5523739 41.99562955 87.40631261 36 86 C35.23373291 85.82178711 34.46746582 85.64357422 33.67797852 85.45996094 C28.12880659 84.12880659 28.12880659 84.12880659 27 83 C26.75819702 80.88049238 26.58292569 78.75329336 26.4375 76.625 C26.35371094 75.46226562 26.26992188 74.29953125 26.18359375 73.1015625 C25.90268384 68.07107451 25.9637711 63.03639273 26 58 C25.28271729 58.05534912 24.56543457 58.11069824 23.82641602 58.16772461 C6.89092456 59.46093139 -10.02389659 60.4490605 -27 61 C-26.9285376 61.56775146 -26.8570752 62.13550293 -26.78344727 62.72045898 C-25.97157875 69.51108325 -25.9280685 76.16650717 -26 83 C-27.04172363 83.20363159 -27.04172363 83.20363159 -28.10449219 83.41137695 C-31.320297 84.04189029 -34.53514262 84.67717428 -37.75 85.3125 C-38.84183594 85.52583984 -39.93367187 85.73917969 -41.05859375 85.95898438 C-84.1479312 94.50036192 -126.49550613 113.39737209 -158.1875 144.5234375 C-160 146 -160 146 -163 146 C-163.2271167 145.40791748 -163.4542334 144.81583496 -163.68823242 144.20581055 C-166.27433779 137.58942785 -169.2087811 131.20000417 -172.3125 124.8125 C-173.29493085 122.77766228 -174.27670199 120.74250591 -175.2578125 118.70703125 C-175.72993164 117.72814941 -176.20205078 116.74926758 -176.68847656 115.74072266 C-178.39343301 112.17783339 -180.04243188 108.59078999 -181.6875 105 C-184.36556055 99.21694172 -187.27290091 93.59343953 -190.33666992 88.0078125 C-195.02638802 79.41929862 -195.02638802 79.41929862 -194.9453125 75.05859375 C-193.7509555 71.19420727 -191.65546653 68.8730687 -188.875 66.0625 C-188.08017212 65.23431763 -188.08017212 65.23431763 -187.26928711 64.3894043 C-186.12391993 63.2022729 -184.97222827 62.02121749 -183.81494141 60.84570312 C-181.96930319 58.9687829 -180.14641329 57.07153807 -178.32421875 55.171875 C-165.29978032 41.72224598 -150.91836562 31.74888594 -135 22 C-134.09636719 21.43539062 -133.19273437 20.87078125 -132.26171875 20.2890625 C-129.83666061 18.90690501 -127.40782221 17.83727927 -124.8125 16.8125 C-123.95269531 16.46832031 -123.09289062 16.12414062 -122.20703125 15.76953125 C-120 15 -120 15 -118 15 C-118 14.34 -118 13.68 -118 13 C-103.95966824 7.35020897 -89.89612949 2.79302428 -75 0 C-73.6874962 -0.28253441 -72.37499636 -0.56508725 -71.0625 -0.84765625 C-48.08207342 -5.45058803 -22.92514071 -4.15680551 0 0 Z " fill="#456043" transform="translate(294,61)"/>
<path d="M0 0 C0.17095072 2.60394573 0.33680933 5.2080651 0.5 7.8125 C0.57154297 8.89047852 0.57154297 8.89047852 0.64453125 9.99023438 C1.01501924 15.99743257 1.0507738 21.98259991 1 28 C2.07258057 27.93941406 3.14516113 27.87882812 4.25024414 27.81640625 C8.30372815 27.58856557 12.35750235 27.36628009 16.41137695 27.14550781 C18.15201813 27.04997212 19.89258186 26.95301275 21.63305664 26.85449219 C32.43672056 26.2440805 43.17758591 25.8525473 54 26 C53.88483032 24.65627319 53.88483032 24.65627319 53.76733398 23.28540039 C53.19341267 16.50054983 52.89028837 9.80644043 53 3 C59.91639863 3.49552402 65.62497919 5.04043017 72.0625 7.5625 C72.92810547 7.89185547 73.79371094 8.22121094 74.68554688 8.56054688 C76.79415283 9.36438009 78.89859349 10.1775712 81 11 C81.55690529 16.89955818 82.10793245 22.79962898 82.65405273 28.70019531 C82.83970289 30.6977334 83.02682206 32.69513564 83.21557617 34.69238281 C84.25529803 45.70511676 85.22864342 56.69301502 85.57371521 67.75311279 C85.80862302 73.92002456 86.64555882 79.95380752 87.491745 86.06390381 C88.30464424 92.35926653 88.79893839 98.67258989 89.2890625 105 C89.398033 106.37428919 89.50728186 107.74855634 89.61679077 109.12280273 C89.84276864 111.96953351 90.06602274 114.8164595 90.28710938 117.66357422 C90.56931868 121.29600672 90.85764283 124.92792299 91.1478672 128.5597229 C91.37302435 131.38380634 91.59542814 134.20810132 91.81696701 137.0324707 C91.97300055 139.01719256 92.13096324 141.00176246 92.28897095 142.98632812 C92.72818033 148.67229242 93.13877818 154.29632287 93 160 C89.07291945 156.46100741 86.42062875 152.33353384 83.5625 147.9375 C82.48926543 146.30794514 81.41501345 144.67905998 80.33984375 143.05078125 C79.78796387 142.21369629 79.23608398 141.37661133 78.66748047 140.51416016 C76.02266573 136.52641459 73.32874338 132.57295116 70.625 128.625 C70.08238525 127.83246826 69.53977051 127.03993652 68.98071289 126.22338867 C64.63882977 119.89857819 60.22744918 113.62393982 55.81103516 107.35107422 C49.1772707 97.88908756 42.73078678 88.29935079 36.28320312 78.70996094 C32.4571978 73.02925424 28.61479192 67.39319358 24.44824219 61.95410156 C21.33663884 57.75564014 18.50490478 53.35893729 15.625 49 C14.98433594 48.03449219 14.34367188 47.06898438 13.68359375 46.07421875 C12.1202589 43.7175498 10.55911358 41.35946282 9 39 C2.01179862 39.6996243 -4.4526273 41.36618966 -11.19726562 43.27148438 C-15.21859987 44.37582196 -18.78386891 45.33488618 -23 45 C-23 45.66 -23 46.32 -23 47 C-23.64066406 47.12117188 -24.28132813 47.24234375 -24.94140625 47.3671875 C-26.23884766 47.61855469 -26.23884766 47.61855469 -27.5625 47.875 C-28.40941406 48.03742188 -29.25632812 48.19984375 -30.12890625 48.3671875 C-33.46513188 49.10251886 -36.7188781 50.05095702 -40 51 C-40.03536362 51.5732753 -40.07072723 52.1465506 -40.10716248 52.73719788 C-40.47700562 58.72369349 -40.85078255 64.70993443 -41.22680664 70.69604492 C-41.36648061 72.92775326 -41.50516388 75.15952385 -41.64282227 77.39135742 C-41.84128255 80.60612742 -42.04334776 83.82065403 -42.24609375 87.03515625 C-42.3065538 88.02709488 -42.36701385 89.01903351 -42.42930603 90.04103088 C-42.67381428 93.87432833 -42.94818259 97.64433153 -43.50219727 101.44702148 C-44.21756709 106.55284643 -44.44545102 111.66648963 -44.71875 116.8125 C-44.78155151 117.94018799 -44.84435303 119.06787598 -44.90905762 120.22973633 C-45.10891255 123.81967244 -45.30493283 127.40980074 -45.5 131 C-45.75696176 135.72936528 -46.01788889 140.45848723 -46.28125 145.1875 C-46.338573 146.26684814 -46.395896 147.34619629 -46.45495605 148.45825195 C-46.74699679 153.69591654 -47.20656952 158.81004061 -48 164 C-48.18969252 166.23514436 -48.35584776 168.47239474 -48.5 170.7109375 C-48.5825 171.95617187 -48.665 173.20140625 -48.75 174.484375 C-48.8325 175.76828125 -48.915 177.0521875 -49 178.375 C-49.51065572 186.27420563 -50.04119039 194.14118551 -51 202 C-54.14487385 198.2868935 -55.9448886 194.07883598 -57.9375 189.6875 C-59.82360497 185.54824458 -61.70090235 181.51015682 -64.00390625 177.58203125 C-65.50481604 175.02010866 -66.64269794 172.47745718 -67.69921875 169.703125 C-70.88297418 161.48838403 -74.93615266 153.65350698 -78.8125 145.75 C-79.60252308 144.13166149 -80.39223858 142.51317279 -81.18164062 140.89453125 C-81.96076329 139.29939407 -82.7400585 137.70434114 -83.51953125 136.109375 C-83.89925079 135.33170776 -84.27897034 134.55404053 -84.67019653 133.75280762 C-86.44734484 130.12431756 -88.24291803 126.50869093 -90.09912109 122.91992188 C-90.58538216 121.97321625 -90.58538216 121.97321625 -91.08146667 121.00738525 C-91.94567395 119.33122147 -92.81949157 117.66002221 -93.6940918 115.98925781 C-95.02037076 112.95337081 -95.60695174 110.27795509 -96 107 C-96.66 107 -97.32 107 -98 107 C-98.24234375 106.34773438 -98.4846875 105.69546875 -98.734375 105.0234375 C-100.24246389 101.0908057 -101.65559083 97.51661376 -104 94 C-106.14203922 90.78694118 -107.36080799 87.72114355 -108.71484375 84.125 C-109.75229036 81.60233347 -110.86062438 79.19279882 -112.06640625 76.75 C-112.43475586 75.99887939 -112.80310547 75.24775879 -113.18261719 74.47387695 C-113.9260636 72.96947426 -114.68036741 71.47038034 -115.44628906 69.97729492 C-116.90689674 67.00303499 -117.96962626 64.70488024 -118.11328125 61.37109375 C-116.43787567 57.80277379 -113.77101603 55.4529004 -110.875 52.875 C-110.24972412 52.3080542 -109.62444824 51.7411084 -108.98022461 51.15698242 C-95.81542797 39.42816659 -78.1263159 24.50040489 -61.0625 19.25 C-59.90427734 18.88648438 -59.90427734 18.88648438 -58.72265625 18.515625 C-58.15417969 18.34546875 -57.58570313 18.1753125 -57 18 C-57 17.34 -57 16.68 -57 16 C-53.535 15.505 -53.535 15.505 -50 15 C-50 14.34 -50 13.68 -50 13 C-38.12377433 8.35901609 -26.47528165 4.62429286 -14 2 C-12.24961901 1.58493676 -10.49953426 1.16861793 -8.75 0.75 C-5.64558128 0.12911626 -3.12747061 -0.06470629 0 0 Z " fill="#2C3E2A" transform="translate(272,189)"/>
<path d="M0 0 C3.15928341 1.5796417 4.05107412 4.76125705 5.53515625 7.828125 C5.88449722 8.53890198 6.2338382 9.24967896 6.59376526 9.98199463 C7.73749107 12.3173862 8.87028689 14.65780001 10 17 C10.37695007 17.78060791 10.75390015 18.56121582 11.14227295 19.36547852 C13.52103059 24.3015811 15.8789008 29.24739854 18.22680664 34.19824219 C19.43039403 36.73502288 20.63788773 39.26991763 21.84570312 41.8046875 C25.91961285 50.37430612 29.90575339 58.97409195 33.76953125 67.640625 C36.70959462 74.22702768 39.77383995 80.67632473 43.25 87 C48.33364708 96.47394499 52.87513408 106.17147245 57.34985352 115.94238281 C60.87929708 123.63892238 64.55684967 131.21682036 68.51171875 138.703125 C70.20768549 142.46006968 71.10949919 145.98177959 72 150 C72.66 150 73.32 150 74 150 C74.22421631 150.51481934 74.44843262 151.02963867 74.67944336 151.56005859 C77.50271254 157.98308453 80.51232384 164.30713188 83.5625 170.625 C84.63171437 172.84495386 85.70072005 175.06500825 86.76953125 177.28515625 C87.30787598 178.40293457 87.8462207 179.52071289 88.40087891 180.67236328 C89.92306993 183.83991498 91.4379984 187.01079556 92.94921875 190.18359375 C97.36115127 199.44576046 101.80609802 208.68275205 106.43017578 217.84106445 C108.40757885 221.77051927 110.25692749 225.72840771 111.9921875 229.76953125 C113.79071568 233.74999478 115.82569965 237.61515551 117.828125 241.49609375 C119 244 119 244 119 246 C114.46165719 245.37521858 110.71658536 243.56942881 106.6875 241.5 C105.9874585 241.14325195 105.28741699 240.78650391 104.56616211 240.41894531 C102.3711784 239.29089599 100.18429561 238.14859589 98 237 C97.32936523 236.64873047 96.65873047 236.29746094 95.96777344 235.93554688 C80.36940799 227.68529921 66.11766791 217.85721606 53.51318359 205.47802734 C52.02346664 204.02292143 50.50935969 202.59799207 48.98828125 201.17578125 C36.62509343 189.44143507 26.84710246 175.50230913 18 161 C17.36320312 159.98421875 16.72640625 158.9684375 16.0703125 157.921875 C12.33124559 151.79173097 9.52476227 145.68479983 7.140625 138.91015625 C6.10441769 136.01167291 6.10441769 136.01167291 4.5390625 133.6328125 C-1.47807994 123.33952822 -3.57763922 110.112599 -5.8125 98.5625 C-6.0192334 97.49813721 -6.2259668 96.43377441 -6.43896484 95.3371582 C-11.64180951 67.14596664 -13.27969423 26.55938846 0 0 Z " fill="#212F1F" transform="translate(67,196)"/>
<path d="M0 0 C0.66 0 1.32 0 2 0 C3.23604203 1.7037336 4.46642005 3.41211588 5.65625 5.1484375 C7.05052915 7.17151489 7.05052915 7.17151489 9.3125 9.3125 C16.07357044 16.07357044 21.22982321 23.71449809 26.1171875 31.8984375 C27.74166148 34.57443821 29.45049467 37.12840448 31.25 39.6875 C35.0317427 45.27252601 37.4835105 51.43855532 39 58 C39.66 58 40.32 58 41 58 C59.75496973 103.47665228 63.70992421 155.26791197 47 202 C46.69578125 203.00933594 46.3915625 204.01867187 46.078125 205.05859375 C42.44825225 217.04672613 36.21043393 227.95215707 30.1875 238.875 C29.62832886 239.90125488 29.62832886 239.90125488 29.05786133 240.94824219 C27.26493924 244.14161804 26.09895082 245.93403279 23 248 C20.87406341 237.20190027 20.07194827 226.3265354 19.1953125 215.375 C19.02888489 213.34517433 18.86195267 211.31538998 18.69454956 209.28564453 C18.25451756 203.93703003 17.82013269 198.58797325 17.3873291 193.23876953 C15.36735771 168.29978351 13.34414683 143.36028335 11.12279892 118.43829346 C10.95492182 116.54956768 10.7886839 114.66069535 10.62424088 112.77166748 C9.89269649 104.39148624 9.13304405 96.13892238 7.48690796 87.88174438 C6.31365272 80.93788233 5.8786525 73.86803703 5.2734375 66.85546875 C5.11972373 65.11433197 4.96563379 63.37322835 4.81118774 61.63215637 C4.49043032 58.00414498 4.17307269 54.37585843 3.85839844 50.74731445 C3.45574936 46.10566822 3.04624986 41.46465835 2.63443565 36.82381725 C2.31662849 33.23716997 2.00155698 29.65028668 1.687397 26.06331825 C1.53732564 24.35170208 1.38661475 22.64014184 1.23524094 20.92864037 C1.02446317 18.53883016 0.8171607 16.14874351 0.61083984 13.75854492 C0.54852676 13.05868973 0.48621368 12.35883453 0.42201233 11.63777161 C0.09029513 7.74621564 -0.0592782 3.90518273 0 0 Z " fill="#2F422D" transform="translate(398,118)"/>
<path d="M0 0 C3.69617257 1.23489547 5.60866649 2.22801543 7.69140625 5.53515625 C8.15409912 6.2521167 8.61679199 6.96907715 9.09350586 7.70776367 C9.57827393 8.48482666 10.06304199 9.26188965 10.5625 10.0625 C11.63594818 11.72790028 12.71151678 13.39193548 13.7890625 15.0546875 C14.59972168 16.31297363 14.59972168 16.31297363 15.42675781 17.59667969 C17.67247951 21.0272949 20.04595132 24.35769908 22.4375 27.6875 C28.22705594 35.79899648 33.80011234 44.05296489 39.375 52.3125 C45.95221549 62.05700189 52.5802284 71.75697387 59.35546875 81.36547852 C64.37029585 88.48943793 69.21357933 95.72111142 74 103 C72.5698015 106.6678451 71.11622704 107.78388712 67.5546875 109.3671875 C66.65049072 109.77501465 65.74629395 110.1828418 64.81469727 110.60302734 C63.84459717 111.02277832 62.87449707 111.4425293 61.875 111.875 C60.88105225 112.31408691 59.88710449 112.75317383 58.86303711 113.20556641 C42.70188286 120.27403741 26.58718122 125.89280028 9.125 128.75 C8.35244873 128.87785889 7.57989746 129.00571777 6.78393555 129.13745117 C6.03281494 129.25193604 5.28169434 129.3664209 4.5078125 129.484375 C3.52772217 129.63471191 3.52772217 129.63471191 2.52783203 129.78808594 C-1.31247233 130.11002762 -5.14858858 130.03856671 -9 130 C-9.19087869 117.23715674 -8.63368675 104.65785531 -7.625 91.9375 C-7.48581965 90.11527933 -7.34723634 88.29301297 -7.20922852 86.47070312 C-6.41379827 76.02821241 -5.57142025 65.58947026 -4.69970703 55.15307617 C-4.22432439 49.30863702 -3.83814807 43.46324631 -3.50390625 37.609375 C-3.46168442 36.87706665 -3.41946259 36.1447583 -3.3759613 35.39025879 C-3.16974474 31.79444525 -2.97096488 28.19847543 -2.78491211 24.6015625 C-2.32224126 16.29684934 -1.43949683 8.19325261 0 0 Z " fill="#131C12" transform="translate(280,324)"/>
<path d="M0 0 C0.66 0 1.32 0 2 0 C2.66 1.32 3.32 2.64 4 4 C3.34 4 2.68 4 2 4 C2.07294785 4.76325089 2.14589569 5.52650177 2.22105408 6.31288147 C2.9182771 13.61909671 3.60969288 20.92583014 4.2950964 28.23316288 C4.64739014 31.98703664 5.00168195 35.74069607 5.36108398 39.49389648 C7.03463334 56.98676329 8.49135256 74.42539266 9 92 C8.67 92 8.34 92 8 92 C6.05109082 73.45745185 4.32587521 54.89549687 2.65658569 36.32592773 C2.42736359 33.7771812 2.197242 31.22851539 1.96621704 28.67993164 C1.63739593 25.04728626 1.31228308 21.41432802 0.98828125 17.78125 C0.88841919 16.68232422 0.78855713 15.58339844 0.68566895 14.45117188 C0.2588827 9.61919944 -0.13252697 4.85687763 0 0 Z " fill="#5D9450" transform="translate(398,118)"/>
<path d="M0 0 C0.66 0 1.32 0 2 0 C2.66 1.65 3.32 3.3 4 5 C3.01 4.67 2.02 4.34 1 4 C0.18052254 14.09732992 -0.4620795 24.2004458 -1.0625 34.3125 C-1.15419672 35.84310496 -1.24599302 37.37370396 -1.33789062 38.90429688 C-1.55973774 42.6027968 -1.78025118 46.30137474 -2 50 C-2.33 50 -2.66 50 -3 50 C-3.32861308 33.16770781 -2.15410842 16.68948863 0 0 Z " fill="#60A34E" transform="translate(279,320)"/>
<path d="M0 0 C0.66 0.33 1.32 0.66 2 1 C1.17696568 4.46010347 0.14681165 7.84396118 -0.875 11.25 C-3.13275211 19.07797266 -4.62450829 26.97629836 -6 35 C-6.33 35 -6.66 35 -7 35 C-7.42084498 27.67550647 -5.84826299 21.20266933 -4.0625 14.125 C-3.78470703 12.98546875 -3.50691406 11.8459375 -3.22070312 10.671875 C-1.16491328 2.32982655 -1.16491328 2.32982655 0 0 Z " fill="#4A7341" transform="translate(67,196)"/>
<path d="M0 0 C0.66 0 1.32 0 2 0 C2.66 1.65 3.32 3.3 4 5 C3.01 4.67 2.02 4.34 1 4 C1 5.98 1 7.96 1 10 C0.67 10 0.34 10 0 10 C0 6.7 0 3.4 0 0 Z " fill="#3E6435" transform="translate(279,320)"/>
</svg>
